<?xml version="1.0" encoding="UTF-8"?> <svg xmlns="http://www.w3.org/2000/svg" width="2045" height="261" viewBox="0 0 2045 261" fill="none"> <path d="M956.853 57.2726C956.853 64.5359 958.472 70.9159 961.711 76.4125C965.048 81.9091 969.367 86.1788 974.667 89.2215C980.066 92.1661 985.906 93.6384 992.188 93.6384C997.095 93.6384 1001.51 93.0004 1005.44 91.7244C1009.36 90.4484 1012.9 88.7308 1016.04 86.5714C1019.28 84.3139 1022.08 81.8109 1024.43 79.0626V99.6749C1020.11 103.208 1015.45 105.908 1010.44 107.773C1005.44 109.637 999.157 110.57 991.599 110.57C984.041 110.57 976.974 109.294 970.398 106.742C963.92 104.19 958.276 100.509 953.466 95.6997C948.657 90.8901 944.878 85.2463 942.13 78.7682C939.479 72.1919 938.154 65.0267 938.154 57.2726C938.154 49.5184 939.479 42.4023 942.13 35.9242C944.878 29.3479 948.657 23.655 953.466 18.8455C958.276 14.036 963.92 10.3552 970.398 7.8032C976.974 5.25121 984.041 3.97522 991.599 3.97522C999.157 3.97522 1005.44 4.90768 1010.44 6.77259C1015.45 8.63751 1020.11 11.3367 1024.43 14.8703V35.4825C1022.08 32.7342 1019.28 30.2804 1016.04 28.121C1012.9 25.8634 1009.36 24.0967 1005.44 22.8207C1001.51 21.5447 997.095 20.9067 992.188 20.9067C985.906 20.9067 980.066 22.4281 974.667 25.4708C969.367 28.4154 965.048 32.636 961.711 38.1326C958.472 43.5311 956.853 49.911 956.853 57.2726Z" fill="white"></path> <path d="M1056.59 108.803V93.4912H1108.56V108.803H1056.59ZM1056.59 21.0539V5.74198H1108.56V21.0539H1056.59ZM1056.59 61.1006V46.0831H1105.61V61.1006H1056.59ZM1045.84 5.74198H1062.92V108.803H1045.84V5.74198Z" fill="white"></path> <path d="M1205.19 5.74198H1222.26V113.956L1147.03 39.6049V108.803H1129.95V0.588923L1205.19 74.9402V5.74198Z" fill="white"></path> <path d="M1234.81 21.7901V5.74198H1306.66V21.7901H1279.42V108.803H1261.9V21.7901H1234.81Z" fill="white"></path> <path d="M1340.51 59.6282H1359.35L1394.25 108.803H1373.34L1340.51 59.6282ZM1319.31 5.74198H1336.68V108.803H1319.31V5.74198ZM1329.61 20.7595V5.74198H1351.11C1358.57 5.74198 1365.05 7.06705 1370.54 9.71719C1376.14 12.3673 1380.46 16.0972 1383.5 20.9067C1386.54 25.6181 1388.06 31.2128 1388.06 37.6909C1388.06 44.1691 1386.54 49.8129 1383.5 54.6224C1380.46 59.4319 1376.14 63.1618 1370.54 65.8119C1365.05 68.4621 1358.57 69.7871 1351.11 69.7871H1329.61V55.5058H1350.37C1354.3 55.5058 1357.74 54.8187 1360.68 53.4446C1363.72 52.0704 1366.08 50.1074 1367.75 47.5554C1369.42 44.9052 1370.25 41.7643 1370.25 38.1326C1370.25 34.4028 1369.42 31.2619 1367.75 28.7099C1366.08 26.1579 1363.72 24.1948 1360.68 22.8207C1357.74 21.4465 1354.3 20.7595 1350.37 20.7595H1329.61Z" fill="white"></path> <path d="M1419.24 82.3017L1422.48 67.5787H1470.33L1473.71 82.3017H1419.24ZM1446.18 34.8936L1429.98 72.7317L1429.69 76.5597L1415.41 108.803H1395.83L1446.18 0L1496.53 108.803H1476.95L1462.96 77.4431L1462.52 73.1734L1446.18 34.8936Z" fill="white"></path> <path d="M1508.52 5.74198H1525.9V93.1967H1566.83V108.803H1508.52V5.74198Z" fill="white"></path> <path d="M1635.91 82.3017L1639.15 67.5787H1687L1690.39 82.3017H1635.91ZM1662.86 34.8936L1646.66 72.7317L1646.37 76.5597L1632.08 108.803H1612.5L1662.86 0L1713.21 108.803H1693.63L1679.64 77.4431L1679.2 73.1734L1662.86 34.8936Z" fill="white"></path> <path d="M1731.97 75.6763C1734.23 79.6025 1736.63 83.0869 1739.18 86.1297C1741.83 89.0743 1744.73 91.3809 1747.87 93.0495C1751.01 94.62 1754.55 95.4052 1758.47 95.4052C1763.18 95.4052 1767.01 94.1292 1769.96 91.5772C1772.9 89.0252 1774.37 85.7371 1774.37 81.7128C1774.37 77.8848 1773.44 74.842 1771.58 72.5845C1769.71 70.2288 1767.11 68.2658 1763.77 66.6953C1760.53 65.0267 1756.75 63.4072 1752.44 61.8367C1749.88 60.9533 1747.04 59.7755 1743.9 58.3032C1740.76 56.7327 1737.76 54.8187 1734.91 52.5612C1732.07 50.2055 1729.71 47.3591 1727.85 44.0218C1725.98 40.5865 1725.05 36.464 1725.05 31.6545C1725.05 26.1579 1726.47 21.3484 1729.32 17.2259C1732.17 13.0053 1735.99 9.76627 1740.8 7.50874C1745.71 5.15306 1751.26 3.97522 1757.44 3.97522C1763.53 3.97522 1768.83 5.0549 1773.34 7.21428C1777.86 9.37366 1781.64 12.122 1784.68 15.4592C1787.82 18.7964 1790.27 22.2808 1792.04 25.9125L1777.91 33.863C1776.63 31.311 1775.01 28.9553 1773.05 26.7959C1771.08 24.5384 1768.78 22.7716 1766.13 21.4956C1763.58 20.1215 1760.58 19.4344 1757.15 19.4344C1752.34 19.4344 1748.8 20.5632 1746.55 22.8207C1744.29 24.9801 1743.16 27.5321 1743.16 30.4767C1743.16 33.1268 1743.94 35.5316 1745.52 37.6909C1747.18 39.7522 1749.74 41.7152 1753.17 43.5802C1756.61 45.4451 1761.07 47.3591 1766.57 49.3221C1769.61 50.4018 1772.65 51.776 1775.7 53.4446C1778.84 55.1132 1781.68 57.2235 1784.24 59.7755C1786.79 62.2293 1788.8 65.1248 1790.27 68.4621C1791.84 71.7993 1792.63 75.7254 1792.63 80.2405C1792.63 85.05 1791.7 89.3688 1789.83 93.1967C1787.97 97.0247 1785.41 100.264 1782.18 102.914C1778.94 105.466 1775.26 107.429 1771.13 108.803C1767.11 110.275 1762.89 111.012 1758.47 111.012C1752.39 111.012 1746.74 109.834 1741.54 107.478C1736.44 105.024 1731.97 101.785 1728.14 97.7609C1724.31 93.7366 1721.27 89.3688 1719.01 84.6574L1731.97 75.6763Z" fill="white"></path> <path d="M1810.46 5.74198H1827.98V108.803H1810.46V5.74198Z" fill="white"></path> <path d="M1863.37 82.3017L1866.61 67.5787H1914.46L1917.85 82.3017H1863.37ZM1890.32 34.8936L1874.12 72.7317L1873.83 76.5597L1859.54 108.803H1839.96L1890.32 0L1940.67 108.803H1921.09L1907.1 77.4431L1906.66 73.1734L1890.32 34.8936Z" fill="white"></path> <path d="M2027.89 5.74198H2044.97V113.956L1969.74 39.6049V108.803H1952.66V0.588923L2027.89 74.9402V5.74198Z" fill="white"></path> <path d="M943.307 151.711H960.681V220.173C960.681 226.553 962.349 231.706 965.686 235.632C969.122 239.46 974.177 241.374 980.851 241.374C987.427 241.374 992.433 239.46 995.869 235.632C999.304 231.706 1001.02 226.553 1001.02 220.173V151.711H1018.39V220.909C1018.39 226.602 1017.46 231.706 1015.6 236.221C1013.83 240.638 1011.28 244.417 1007.94 247.558C1004.6 250.698 1000.63 253.103 996.016 254.772C991.403 256.44 986.348 257.275 980.851 257.275C975.354 257.275 970.3 256.44 965.686 254.772C961.073 253.103 957.049 250.698 953.613 247.558C950.276 244.417 947.724 240.638 945.957 236.221C944.191 231.706 943.307 226.602 943.307 220.909V151.711Z" fill="white"></path> <path d="M1115.9 151.711H1132.98V259.925L1057.74 185.574V254.772H1040.66V146.558L1115.9 220.909V151.711Z" fill="white"></path> <path d="M1155.83 151.711H1173.35V254.772H1155.83V151.711Z" fill="white"></path> <path d="M1235.69 224.148L1266.02 151.711H1286.04L1235.69 260.514L1185.33 151.711H1205.36L1235.69 224.148Z" fill="white"></path> <path d="M1308.78 254.772V239.46H1360.75V254.772H1308.78ZM1308.78 167.023V151.711H1360.75V167.023H1308.78ZM1308.78 207.069V192.052H1357.8V207.069H1308.78ZM1298.03 151.711H1315.11V254.772H1298.03V151.711Z" fill="white"></path> <path d="M1403.34 205.597H1422.19L1457.08 254.772H1436.17L1403.34 205.597ZM1382.14 151.711H1399.51V254.772H1382.14V151.711ZM1392.45 166.728V151.711H1413.94C1421.4 151.711 1427.88 153.036 1433.38 155.686C1438.97 158.336 1443.29 162.066 1446.33 166.875C1449.37 171.587 1450.9 177.181 1450.9 183.66C1450.9 190.138 1449.37 195.782 1446.33 200.591C1443.29 205.401 1438.97 209.13 1433.38 211.781C1427.88 214.431 1421.4 215.756 1413.94 215.756H1392.45V201.474H1413.21C1417.13 201.474 1420.57 200.787 1423.51 199.413C1426.55 198.039 1428.91 196.076 1430.58 193.524C1432.25 190.874 1433.08 187.733 1433.08 184.101C1433.08 180.371 1432.25 177.231 1430.58 174.679C1428.91 172.127 1426.55 170.163 1423.51 168.789C1420.57 167.415 1417.13 166.728 1413.21 166.728H1392.45Z" fill="white"></path> <path d="M1476.47 221.645C1478.73 225.571 1481.14 229.056 1483.69 232.098C1486.34 235.043 1489.23 237.35 1492.37 239.018C1495.52 240.589 1499.05 241.374 1502.98 241.374C1507.69 241.374 1511.51 240.098 1514.46 237.546C1517.4 234.994 1518.88 231.706 1518.88 227.681C1518.88 223.853 1517.94 220.811 1516.08 218.553C1514.21 216.197 1511.61 214.234 1508.28 212.664C1505.04 210.995 1501.26 209.376 1496.94 207.805C1494.39 206.922 1491.54 205.744 1488.4 204.272C1485.26 202.701 1482.27 200.787 1479.42 198.53C1476.57 196.174 1474.22 193.328 1472.35 189.99C1470.49 186.555 1469.55 182.433 1469.55 177.623C1469.55 172.127 1470.98 167.317 1473.82 163.195C1476.67 158.974 1480.5 155.735 1485.31 153.477C1490.22 151.122 1495.76 149.944 1501.94 149.944C1508.03 149.944 1513.33 151.024 1517.85 153.183C1522.36 155.342 1526.14 158.091 1529.18 161.428C1532.32 164.765 1534.78 168.249 1536.54 171.881L1522.41 179.832C1521.13 177.28 1519.51 174.924 1517.55 172.765C1515.59 170.507 1513.28 168.74 1510.63 167.464C1508.08 166.09 1505.09 165.403 1501.65 165.403C1496.84 165.403 1493.31 166.532 1491.05 168.789C1488.79 170.949 1487.66 173.501 1487.66 176.445C1487.66 179.095 1488.45 181.5 1490.02 183.66C1491.69 185.721 1494.24 187.684 1497.68 189.549C1501.11 191.414 1505.58 193.328 1511.07 195.291C1514.12 196.37 1517.16 197.745 1520.2 199.413C1523.34 201.082 1526.19 203.192 1528.74 205.744C1531.29 208.198 1533.3 211.094 1534.78 214.431C1536.35 217.768 1537.13 221.694 1537.13 226.209C1537.13 231.019 1536.2 235.337 1534.34 239.165C1532.47 242.993 1529.92 246.232 1526.68 248.883C1523.44 251.435 1519.76 253.398 1515.64 254.772C1511.61 256.244 1507.39 256.98 1502.98 256.98C1496.89 256.98 1491.25 255.802 1486.04 253.447C1480.94 250.993 1476.47 247.754 1472.65 243.73C1468.82 239.705 1465.78 235.337 1463.52 230.626L1476.47 221.645Z" fill="white"></path> <path d="M1554.96 151.711H1572.48V254.772H1554.96V151.711Z" fill="white"></path> <path d="M1585.2 167.759V151.711H1657.05V167.759H1629.81V254.772H1612.29V167.759H1585.2Z" fill="white"></path> <path d="M1730.84 151.711H1750.72L1715.67 211.339V254.772H1698.01V211.486L1663.11 151.711H1682.84L1706.84 195.88L1730.84 151.711Z" fill="white"></path> <path d="M124.606 5.53955H213.538V76.6855H124.606C109.935 76.6855 97.273 81.9109 86.9226 92.3617C76.4718 102.813 71.2464 115.374 71.2464 130.045C71.2464 144.716 76.4718 157.378 86.9226 167.728C97.3735 178.179 109.935 183.404 124.606 183.404H213.538V254.55H124.606C90.2388 254.55 60.7956 242.391 36.4774 218.073C12.1591 193.755 0 164.412 0 129.945C0 95.5774 12.1591 66.1342 36.4774 41.816C60.7956 17.6987 90.1383 5.53955 124.606 5.53955Z" fill="white"></path> <path d="M436.824 5.53955V254.651H365.678V116.278L276.746 254.751H187.612L347.791 5.64005H436.824V5.53955Z" fill="white"></path> <path d="M454.61 130.145V5.53955H525.756V130.145C525.756 144.817 530.982 157.478 541.432 167.829C551.883 178.179 564.444 183.505 579.116 183.505C593.787 183.505 606.449 178.28 616.799 167.829C627.25 157.378 632.475 144.817 632.475 130.145V5.53955H703.621V130.145C703.621 164.513 691.462 193.956 667.144 218.274C642.826 242.592 613.483 254.751 579.015 254.751C544.648 254.751 515.205 242.592 490.887 218.274C466.769 193.855 454.61 164.513 454.61 130.145Z" fill="white"></path> <path d="M840.885 5.53955H821V254.55H840.885V5.53955Z" fill="#C58E15"></path> </svg> 